<svg xmlns="http://www.w3.org/2000/svg" xmlns:xlink="http://www.w3.org/1999/xlink" style="margin: auto; background: rgb(253, 253, 253); display: block;" width="207px" height="207px" viewBox="0 0 100 100" preserveAspectRatio="xMidYMid">
<g transform="rotate(0 50 50)">
  <rect x="49.5" y="24" rx="0.5" ry="2.7600000000000002" width="1" height="12" fill="#85a2b6">
    <animate attributeName="opacity" values="1;0" keyTimes="0;1" dur="1.4925373134328357s" begin="-1.451077943615257s" repeatCount="indefinite"></animate>
  </rect>
</g><g transform="rotate(10 50 50)">
  <rect x="49.5" y="24" rx="0.5" ry="2.7600000000000002" width="1" height="12" fill="#85a2b6">
    <animate attributeName="opacity" values="1;0" keyTimes="0;1" dur="1.4925373134328357s" begin="-1.4096185737976783s" repeatCount="indefinite"></animate>
  </rect>
</g><g transform="rotate(20 50 50)">
  <rect x="49.5" y="24" rx="0.5" ry="2.7600000000000002" width="1" height="12" fill="#85a2b6">
    <animate attributeName="opacity" values="1;0" keyTimes="0;1" dur="1.4925373134328357s" begin="-1.3681592039800994s" repeatCount="indefinite"></animate>
  </rect>
</g><g transform="rotate(30 50 50)">
  <rect x="49.5" y="24" rx="0.5" ry="2.7600000000000002" width="1" height="12" fill="#85a2b6">
    <animate attributeName="opacity" values="1;0" keyTimes="0;1" dur="1.4925373134328357s" begin="-1.3266998341625207s" repeatCount="indefinite"></animate>
  </rect>
</g><g transform="rotate(40 50 50)">
  <rect x="49.5" y="24" rx="0.5" ry="2.7600000000000002" width="1" height="12" fill="#85a2b6">
    <animate attributeName="opacity" values="1;0" keyTimes="0;1" dur="1.4925373134328357s" begin="-1.285240464344942s" repeatCount="indefinite"></animate>
  </rect>
</g><g transform="rotate(50 50 50)">
  <rect x="49.5" y="24" rx="0.5" ry="2.7600000000000002" width="1" height="12" fill="#85a2b6">
    <animate attributeName="opacity" values="1;0" keyTimes="0;1" dur="1.4925373134328357s" begin="-1.243781094527363s" repeatCount="indefinite"></animate>
  </rect>
</g><g transform="rotate(60 50 50)">
  <rect x="49.5" y="24" rx="0.5" ry="2.7600000000000002" width="1" height="12" fill="#85a2b6">
    <animate attributeName="opacity" values="1;0" keyTimes="0;1" dur="1.4925373134328357s" begin="-1.2023217247097844s" repeatCount="indefinite"></animate>
  </rect>
</g><g transform="rotate(70 50 50)">
  <rect x="49.5" y="24" rx="0.5" ry="2.7600000000000002" width="1" height="12" fill="#85a2b6">
    <animate attributeName="opacity" values="1;0" keyTimes="0;1" dur="1.4925373134328357s" begin="-1.1608623548922057s" repeatCount="indefinite"></animate>
  </rect>
</g><g transform="rotate(80 50 50)">
  <rect x="49.5" y="24" rx="0.5" ry="2.7600000000000002" width="1" height="12" fill="#85a2b6">
    <animate attributeName="opacity" values="1;0" keyTimes="0;1" dur="1.4925373134328357s" begin="-1.1194029850746268s" repeatCount="indefinite"></animate>
  </rect>
</g><g transform="rotate(90 50 50)">
  <rect x="49.5" y="24" rx="0.5" ry="2.7600000000000002" width="1" height="12" fill="#85a2b6">
    <animate attributeName="opacity" values="1;0" keyTimes="0;1" dur="1.4925373134328357s" begin="-1.077943615257048s" repeatCount="indefinite"></animate>
  </rect>
</g><g transform="rotate(100 50 50)">
  <rect x="49.5" y="24" rx="0.5" ry="2.7600000000000002" width="1" height="12" fill="#85a2b6">
    <animate attributeName="opacity" values="1;0" keyTimes="0;1" dur="1.4925373134328357s" begin="-1.0364842454394694s" repeatCount="indefinite"></animate>
  </rect>
</g><g transform="rotate(110 50 50)">
  <rect x="49.5" y="24" rx="0.5" ry="2.7600000000000002" width="1" height="12" fill="#85a2b6">
    <animate attributeName="opacity" values="1;0" keyTimes="0;1" dur="1.4925373134328357s" begin="-0.9950248756218905s" repeatCount="indefinite"></animate>
  </rect>
</g><g transform="rotate(120 50 50)">
  <rect x="49.5" y="24" rx="0.5" ry="2.7600000000000002" width="1" height="12" fill="#85a2b6">
    <animate attributeName="opacity" values="1;0" keyTimes="0;1" dur="1.4925373134328357s" begin="-0.9535655058043118s" repeatCount="indefinite"></animate>
  </rect>
</g><g transform="rotate(130 50 50)">
  <rect x="49.5" y="24" rx="0.5" ry="2.7600000000000002" width="1" height="12" fill="#85a2b6">
    <animate attributeName="opacity" values="1;0" keyTimes="0;1" dur="1.4925373134328357s" begin="-0.912106135986733s" repeatCount="indefinite"></animate>
  </rect>
</g><g transform="rotate(140 50 50)">
  <rect x="49.5" y="24" rx="0.5" ry="2.7600000000000002" width="1" height="12" fill="#85a2b6">
    <animate attributeName="opacity" values="1;0" keyTimes="0;1" dur="1.4925373134328357s" begin="-0.8706467661691542s" repeatCount="indefinite"></animate>
  </rect>
</g><g transform="rotate(150 50 50)">
  <rect x="49.5" y="24" rx="0.5" ry="2.7600000000000002" width="1" height="12" fill="#85a2b6">
    <animate attributeName="opacity" values="1;0" keyTimes="0;1" dur="1.4925373134328357s" begin="-0.8291873963515755s" repeatCount="indefinite"></animate>
  </rect>
</g><g transform="rotate(160 50 50)">
  <rect x="49.5" y="24" rx="0.5" ry="2.7600000000000002" width="1" height="12" fill="#85a2b6">
    <animate attributeName="opacity" values="1;0" keyTimes="0;1" dur="1.4925373134328357s" begin="-0.7877280265339967s" repeatCount="indefinite"></animate>
  </rect>
</g><g transform="rotate(170 50 50)">
  <rect x="49.5" y="24" rx="0.5" ry="2.7600000000000002" width="1" height="12" fill="#85a2b6">
    <animate attributeName="opacity" values="1;0" keyTimes="0;1" dur="1.4925373134328357s" begin="-0.7462686567164178s" repeatCount="indefinite"></animate>
  </rect>
</g><g transform="rotate(180 50 50)">
  <rect x="49.5" y="24" rx="0.5" ry="2.7600000000000002" width="1" height="12" fill="#85a2b6">
    <animate attributeName="opacity" values="1;0" keyTimes="0;1" dur="1.4925373134328357s" begin="-0.7048092868988391s" repeatCount="indefinite"></animate>
  </rect>
</g><g transform="rotate(190 50 50)">
  <rect x="49.5" y="24" rx="0.5" ry="2.7600000000000002" width="1" height="12" fill="#85a2b6">
    <animate attributeName="opacity" values="1;0" keyTimes="0;1" dur="1.4925373134328357s" begin="-0.6633499170812603s" repeatCount="indefinite"></animate>
  </rect>
</g><g transform="rotate(200 50 50)">
  <rect x="49.5" y="24" rx="0.5" ry="2.7600000000000002" width="1" height="12" fill="#85a2b6">
    <animate attributeName="opacity" values="1;0" keyTimes="0;1" dur="1.4925373134328357s" begin="-0.6218905472636815s" repeatCount="indefinite"></animate>
  </rect>
</g><g transform="rotate(210 50 50)">
  <rect x="49.5" y="24" rx="0.5" ry="2.7600000000000002" width="1" height="12" fill="#85a2b6">
    <animate attributeName="opacity" values="1;0" keyTimes="0;1" dur="1.4925373134328357s" begin="-0.5804311774461028s" repeatCount="indefinite"></animate>
  </rect>
</g><g transform="rotate(220 50 50)">
  <rect x="49.5" y="24" rx="0.5" ry="2.7600000000000002" width="1" height="12" fill="#85a2b6">
    <animate attributeName="opacity" values="1;0" keyTimes="0;1" dur="1.4925373134328357s" begin="-0.538971807628524s" repeatCount="indefinite"></animate>
  </rect>
</g><g transform="rotate(230 50 50)">
  <rect x="49.5" y="24" rx="0.5" ry="2.7600000000000002" width="1" height="12" fill="#85a2b6">
    <animate attributeName="opacity" values="1;0" keyTimes="0;1" dur="1.4925373134328357s" begin="-0.49751243781094523s" repeatCount="indefinite"></animate>
  </rect>
</g><g transform="rotate(240 50 50)">
  <rect x="49.5" y="24" rx="0.5" ry="2.7600000000000002" width="1" height="12" fill="#85a2b6">
    <animate attributeName="opacity" values="1;0" keyTimes="0;1" dur="1.4925373134328357s" begin="-0.4560530679933665s" repeatCount="indefinite"></animate>
  </rect>
</g><g transform="rotate(250 50 50)">
  <rect x="49.5" y="24" rx="0.5" ry="2.7600000000000002" width="1" height="12" fill="#85a2b6">
    <animate attributeName="opacity" values="1;0" keyTimes="0;1" dur="1.4925373134328357s" begin="-0.41459369817578773s" repeatCount="indefinite"></animate>
  </rect>
</g><g transform="rotate(260 50 50)">
  <rect x="49.5" y="24" rx="0.5" ry="2.7600000000000002" width="1" height="12" fill="#85a2b6">
    <animate attributeName="opacity" values="1;0" keyTimes="0;1" dur="1.4925373134328357s" begin="-0.3731343283582089s" repeatCount="indefinite"></animate>
  </rect>
</g><g transform="rotate(270 50 50)">
  <rect x="49.5" y="24" rx="0.5" ry="2.7600000000000002" width="1" height="12" fill="#85a2b6">
    <animate attributeName="opacity" values="1;0" keyTimes="0;1" dur="1.4925373134328357s" begin="-0.33167495854063017s" repeatCount="indefinite"></animate>
  </rect>
</g><g transform="rotate(280 50 50)">
  <rect x="49.5" y="24" rx="0.5" ry="2.7600000000000002" width="1" height="12" fill="#85a2b6">
    <animate attributeName="opacity" values="1;0" keyTimes="0;1" dur="1.4925373134328357s" begin="-0.2902155887230514s" repeatCount="indefinite"></animate>
  </rect>
</g><g transform="rotate(290 50 50)">
  <rect x="49.5" y="24" rx="0.5" ry="2.7600000000000002" width="1" height="12" fill="#85a2b6">
    <animate attributeName="opacity" values="1;0" keyTimes="0;1" dur="1.4925373134328357s" begin="-0.24875621890547261s" repeatCount="indefinite"></animate>
  </rect>
</g><g transform="rotate(300 50 50)">
  <rect x="49.5" y="24" rx="0.5" ry="2.7600000000000002" width="1" height="12" fill="#85a2b6">
    <animate attributeName="opacity" values="1;0" keyTimes="0;1" dur="1.4925373134328357s" begin="-0.20729684908789386s" repeatCount="indefinite"></animate>
  </rect>
</g><g transform="rotate(310 50 50)">
  <rect x="49.5" y="24" rx="0.5" ry="2.7600000000000002" width="1" height="12" fill="#85a2b6">
    <animate attributeName="opacity" values="1;0" keyTimes="0;1" dur="1.4925373134328357s" begin="-0.16583747927031509s" repeatCount="indefinite"></animate>
  </rect>
</g><g transform="rotate(320 50 50)">
  <rect x="49.5" y="24" rx="0.5" ry="2.7600000000000002" width="1" height="12" fill="#85a2b6">
    <animate attributeName="opacity" values="1;0" keyTimes="0;1" dur="1.4925373134328357s" begin="-0.12437810945273631s" repeatCount="indefinite"></animate>
  </rect>
</g><g transform="rotate(330 50 50)">
  <rect x="49.5" y="24" rx="0.5" ry="2.7600000000000002" width="1" height="12" fill="#85a2b6">
    <animate attributeName="opacity" values="1;0" keyTimes="0;1" dur="1.4925373134328357s" begin="-0.08291873963515754s" repeatCount="indefinite"></animate>
  </rect>
</g><g transform="rotate(340 50 50)">
  <rect x="49.5" y="24" rx="0.5" ry="2.7600000000000002" width="1" height="12" fill="#85a2b6">
    <animate attributeName="opacity" values="1;0" keyTimes="0;1" dur="1.4925373134328357s" begin="-0.04145936981757877s" repeatCount="indefinite"></animate>
  </rect>
</g><g transform="rotate(350 50 50)">
  <rect x="49.5" y="24" rx="0.5" ry="2.7600000000000002" width="1" height="12" fill="#85a2b6">
    <animate attributeName="opacity" values="1;0" keyTimes="0;1" dur="1.4925373134328357s" begin="0s" repeatCount="indefinite"></animate>
  </rect>
</g>
</svg>